<svg xmlns="http://www.w3.org/2000/svg" width="112.291" height="28.415" viewBox="0 0 112.291 28.415">
  <g id="Group_1" data-name="Group 1" transform="translate(-1027.269 -2138.495)">
    <path id="Path_1" data-name="Path 1" d="M1067.341,2138.5c-.01.262-.029.524-.029.786q0,13.262,0,26.525v.831h-9.193v-17.513a1.069,1.069,0,0,0-.142.173c-2.489,4.344-5.606,8.261-8.427,12.38-.4.584-.8,1.17-1.237,1.725a1.032,1.032,0,0,1-.584.311,1.816,1.816,0,0,1-2.028-.964c-2.5-3.677-5.1-7.289-7.635-10.944-.59-.851-1.069-1.779-1.594-2.662.068,5.829.136,11.641.2,17.524h-9.407V2138.5h10.686a5.128,5.128,0,0,0,.27.526q3.415,5.154,6.837,10.3c.765,1.154,1.524,2.312,2.276,3.454l9.56-14.285Z"/>
    <path id="Path_2" data-name="Path 2" d="M1698.9,2166.91c-.673-.112-1.349-.209-2.018-.339-2.956-.577-4.24-1.982-4.535-4.988-.077-.783-.118-1.572-.12-2.358-.011-4.405-.024-8.81.008-13.215a17.5,17.5,0,0,1,.29-3.25c.491-2.487,1.881-3.641,4.643-4.021.578-.08,1.155-.163,1.733-.245h23.436v6.7h-.835q-9.224,0-18.449,0a2.837,2.837,0,0,0-.84.066c-.176.056-.423.269-.428.419-.036,1.119-.02,2.24-.02,3.4h.787c4.107,0,8.214-.045,12.319.021a37.635,37.635,0,0,1,5.119.471,3.868,3.868,0,0,1,3.448,3.552,37.578,37.578,0,0,1,.027,9.615,4.206,4.206,0,0,1-3.658,3.825c-.726.158-1.471.232-2.207.344Zm2.835-11.445c0,1.414-.007,2.744,0,4.073,0,.519.359.6.793.6,3.681-.006,7.362,0,11.042-.005.707,0,.828-.126.836-.864.01-.91,0-1.82,0-2.73,0-1-.062-1.068-1.063-1.069q-5.006,0-10.011,0Z" transform="translate(-584.2)"/>
    <path id="Path_3" data-name="Path 3" d="M1416.983,2138.5v20.891h19.286v7.278H1407.3v-.79q0-13.3,0-26.592c0-.262-.019-.524-.029-.787Z" transform="translate(-333.856)"/>
  </g>
</svg>
